<?xml version="1.0" standalone="no"?>
<!DOCTYPE svg PUBLIC "-//W3C//DTD SVG 20010904//EN"
 "http://www.w3.org/TR/2001/REC-SVG-20010904/DTD/svg10.dtd">
<svg version="1.0" xmlns="http://www.w3.org/2000/svg"
 width="496.000000pt" height="496.000000pt" viewBox="0 0 496.000000 496.000000"
 preserveAspectRatio="xMidYMid meet">
<metadata>
Created by potrace 1.11, written by Peter Selinger 2001-2013
</metadata>
<g transform="translate(0.000000,496.000000) scale(0.100000,-0.100000)"
fill="#000000" stroke="none">
<path d="M513 4871 c-12 -9 -14 -15 -6 -18 7 -2 9 -11 6 -18 -8 -23 -9 -525 0
-525 5 0 5 -5 1 -11 -9 -16 -11 -109 -1 -109 5 0 5 -5 1 -12 -10 -16 -11 -108
-1 -108 5 0 5 -5 1 -12 -9 -15 -9 -76 0 -85 3 -3 1 -12 -5 -20 -9 -10 -8 -13
2 -13 12 0 12 -2 1 -9 -17 -11 -17 -21 0 -32 7 -5 8 -9 3 -9 -6 0 -11 -13 -10
-30 0 -16 4 -30 8 -30 5 0 5 -5 1 -11 -9 -16 -11 -109 -1 -109 5 0 5 -5 1 -12
-10 -16 -11 -108 -1 -108 5 0 5 -5 1 -12 -9 -15 -9 -76 0 -85 3 -3 1 -12 -5
-20 -9 -10 -8 -13 2 -13 12 0 12 -2 1 -9 -17 -11 -17 -21 0 -32 7 -5 8 -9 3
-9 -6 0 -11 -13 -10 -30 0 -16 4 -30 8 -30 5 0 5 -5 1 -11 -9 -16 -11 -109 -1
-109 5 0 5 -5 1 -12 -10 -16 -11 -108 -1 -108 5 0 5 -5 2 -10 -10 -16 -11
-710 -2 -710 5 0 5 -5 1 -11 -9 -16 -11 -109 -1 -109 5 0 5 -5 1 -12 -11 -18
-4 -343 10 -443 9 -66 28 -162 37 -192 6 -17 12 -44 15 -60 2 -15 11 -44 19
-64 8 -20 11 -39 8 -43 -4 -3 -2 -6 3 -6 5 0 11 -10 11 -22 1 -13 7 -24 13
-26 5 -2 8 -8 5 -12 -3 -5 0 -19 6 -32 25 -47 29 -58 29 -73 0 -10 5 -13 12
-9 7 5 8 3 3 -6 -5 -8 -1 -18 10 -27 11 -7 14 -13 8 -13 -6 0 11 -38 38 -85
27 -47 49 -90 49 -95 0 -6 4 -10 9 -10 5 0 14 -14 21 -30 7 -16 16 -30 20 -30
4 0 13 -13 20 -30 7 -16 17 -30 22 -30 5 0 6 -4 3 -10 -3 -5 2 -10 11 -10 10
0 14 -3 11 -6 -14 -14 180 -229 284 -315 23 -19 52 -44 65 -57 13 -13 24 -20
24 -17 0 3 12 -6 28 -20 15 -14 35 -28 45 -31 9 -3 17 -9 17 -12 0 -4 17 -16
38 -27 20 -11 39 -22 42 -25 17 -19 62 -40 72 -34 6 4 8 3 5 -3 -6 -10 135
-86 159 -86 8 0 14 -4 14 -8 0 -7 49 -24 63 -21 4 1 7 -3 7 -8 0 -6 8 -10 18
-10 10 0 22 -3 26 -7 4 -5 11 -8 14 -9 6 0 95 -27 137 -41 6 -2 61 -14 124
-28 63 -13 120 -26 128 -29 7 -3 13 0 13 7 0 8 3 8 8 2 9 -14 67 -19 247 -19
139 -1 273 7 306 18 8 3 32 7 54 10 65 9 114 23 132 38 14 11 16 11 8 -1 -6
-10 -4 -13 6 -9 8 3 48 16 89 29 41 13 78 28 81 32 3 5 9 8 13 8 25 -4 36 0
30 11 -4 7 -3 8 5 4 6 -4 36 4 66 18 29 14 61 26 69 26 8 0 19 6 23 14 4 8 12
15 16 15 15 0 97 45 97 52 0 5 7 5 17 2 11 -4 14 -3 9 5 -4 7 -1 12 7 12 7 0
22 8 33 17 11 10 26 19 34 21 8 2 17 8 18 13 2 5 10 9 18 9 8 0 14 3 14 8 0 4
16 18 35 31 19 13 44 32 56 42 12 11 26 19 31 19 5 0 6 4 3 10 -3 5 -2 10 3
10 12 0 83 57 82 66 -1 3 9 12 22 19 13 6 22 17 21 23 -2 7 2 12 7 12 11 0 60
45 60 55 0 3 16 20 36 37 20 18 33 37 30 45 -3 8 -2 12 3 9 5 -3 25 16 45 42
19 26 40 52 46 59 5 7 10 17 10 23 0 5 5 10 10 10 6 0 10 6 10 14 0 8 4 16 8
18 8 3 72 104 72 113 0 2 13 27 30 55 16 27 27 50 24 50 -4 0 0 7 7 16 7 9 14
23 15 32 2 8 6 18 11 21 4 3 9 11 10 16 1 6 13 40 27 76 14 37 22 69 19 73 -4
3 -1 6 5 6 7 0 12 7 12 15 0 8 7 34 15 58 8 24 17 57 19 73 2 16 9 42 15 59 7
16 10 37 8 47 -3 10 -2 18 2 18 4 0 7 8 8 18 1 9 5 31 9 47 5 17 10 720 11
1563 l4 1532 -28 1 c-15 0 -902 1 -1970 2 -1628 2 -1945 0 -1960 -12z m1094
-326 c295 -1 469 3 466 9 -4 5 -1 6 8 0 20 -13 260 -14 252 -1 -4 6 -1 7 8 1
20 -13 300 -14 292 -1 -4 6 -1 7 8 1 22 -13 180 -14 172 0 -5 8 -3 8 8 0 17
-14 457 -14 478 0 9 6 12 5 8 -1 -9 -14 91 -12 112 1 9 6 12 5 8 0 -7 -13 173
-12 192 0 10 6 12 5 7 -3 -9 -14 30 -11 53 3 10 6 12 5 7 -3 -9 -14 30 -11 53
3 9 6 12 5 7 -2 -9 -15 93 -13 113 2 11 8 13 8 7 -2 -6 -9 -1 -12 16 -10 12 2
29 7 37 12 10 6 12 5 7 -3 -9 -14 30 -11 53 3 10 7 12 5 6 -3 -9 -16 73 -13
94 3 11 8 13 8 7 -1 -5 -9 1 -13 18 -13 26 0 54 -34 37 -45 -10 -5 -7 -37 4
-55 3 -6 3 -10 -2 -10 -4 0 -8 -32 -8 -70 0 -40 4 -70 10 -70 6 0 4 -4 -3 -9
-17 -11 -17 -21 0 -32 7 -5 8 -9 2 -9 -6 0 -11 -7 -11 -15 0 -8 5 -15 11 -15
6 0 5 -4 -2 -9 -8 -4 -14 -12 -14 -16 0 -4 6 -12 14 -16 7 -5 9 -9 3 -9 -11 0
-13 -1119 -1 -1138 3 -6 3 -13 -1 -15 -7 -4 -9 -195 -3 -222 1 -5 1 -12 0 -15
-6 -16 -4 -420 3 -420 5 0 5 -5 1 -12 -4 -7 -9 -107 -10 -223 -1 -115 -2 -210
-4 -210 -1 0 -3 -18 -5 -40 -2 -22 -11 -74 -20 -115 -9 -41 -19 -86 -21 -100
-3 -14 -9 -29 -15 -34 -13 -14 -11 -28 4 -20 8 5 7 2 -2 -9 -15 -19 -62 -141
-64 -169 -1 -9 -3 -15 -5 -13 -6 6 -76 -137 -75 -152 0 -7 -4 -10 -10 -6 -6 4
-8 0 -4 -11 4 -10 3 -15 -3 -11 -6 3 -13 0 -16 -8 -3 -8 -13 -14 -22 -12 -9 2
-19 4 -22 4 -3 1 -5 209 -5 464 0 254 -3 470 -7 479 -5 10 -15 15 -23 12 -12
-5 -14 6 -11 63 3 37 11 92 20 121 18 63 22 124 11 172 -11 48 -42 118 -61
137 -10 11 -14 28 -12 50 4 31 1 35 -24 40 l-28 6 0 87 c0 83 -1 87 -22 86
-21 -1 -23 3 -20 42 2 31 -1 42 -12 42 -8 0 -18 9 -21 20 -3 11 -11 20 -16 20
-24 0 -3 18 49 42 137 64 202 190 202 391 0 186 -70 304 -210 359 -48 18 -81
22 -252 26 -163 3 -198 2 -198 -9 0 -8 13 -21 29 -30 19 -11 30 -27 34 -50 3
-19 6 -170 5 -337 -1 -283 -2 -304 -20 -327 -11 -14 -26 -25 -34 -25 -8 0 -14
-8 -14 -17 0 -17 14 -18 177 -16 97 1 182 4 190 7 7 3 13 -1 13 -9 0 -8 -4
-15 -10 -15 -5 0 -10 -7 -10 -15 0 -8 -7 -15 -15 -15 -11 0 -15 -11 -15 -41 0
-32 -4 -42 -20 -46 -17 -5 -20 -15 -22 -92 -3 -82 -4 -86 -25 -85 -20 0 -23
-4 -23 -38 0 -33 -5 -41 -31 -56 -58 -32 -134 -85 -199 -140 -62 -52 -65 -54
-68 -31 -1 13 -12 71 -23 129 -17 92 -25 138 -29 175 -1 15 -22 -24 -25 -48
-8 -69 -18 -117 -24 -117 -3 0 -6 -12 -7 -27 0 -16 -3 -39 -7 -53 -3 -14 -6
-40 -6 -58 -1 -25 -6 -35 -21 -39 -16 -4 -20 -14 -20 -52 0 -26 -3 -51 -7 -54
-9 -9 -22 33 -73 223 -23 85 -48 180 -56 210 -44 163 -77 288 -82 308 -2 12
-9 22 -14 22 -5 0 -6 5 -3 10 4 6 4 18 1 26 -6 17 -27 9 -61 -23 -11 -11 -26
-18 -33 -15 -6 2 -12 0 -12 -5 0 -5 -24 -15 -52 -23 -55 -13 -73 -27 -59 -45
5 -5 18 -48 30 -95 12 -47 23 -92 26 -100 2 -8 11 -44 20 -80 9 -36 19 -72 22
-80 4 -8 7 -17 8 -20 2 -9 15 -64 21 -90 7 -32 9 -41 17 -60 4 -8 14 -44 23
-80 26 -106 41 -164 50 -184 8 -22 4 -21 -119 15 -49 14 -67 24 -63 34 2 7 -6
20 -19 29 -13 8 -36 27 -52 42 -15 14 -54 46 -86 71 -31 24 -55 49 -51 54 3 5
2 8 -3 7 -4 -2 -19 5 -32 14 -19 14 -22 22 -16 45 4 15 9 39 11 53 3 14 7 32
11 40 3 8 7 24 9 35 2 11 22 88 44 170 23 83 43 161 46 174 3 14 7 28 10 33 3
4 -4 9 -15 9 -30 2 -31 2 -86 23 -27 11 -61 30 -75 43 -14 13 -29 22 -34 20
-8 -3 -26 -62 -60 -197 -2 -8 -9 -35 -16 -60 -7 -25 -14 -52 -16 -60 -2 -8
-15 -58 -29 -110 -14 -52 -28 -103 -30 -113 -2 -10 -7 -27 -10 -37 -3 -10 -8
-28 -10 -41 -2 -12 -7 -24 -10 -27 -3 -3 -61 22 -130 57 -68 34 -148 70 -177
81 -49 17 -53 21 -56 54 -2 27 -8 35 -25 38 -20 3 -22 9 -22 68 -1 115 -2 120
-29 120 -27 0 -36 21 -36 91 0 42 3 48 28 58 104 43 153 186 101 297 -25 52
-86 102 -195 158 -101 53 -136 92 -142 159 -8 96 41 147 140 147 59 0 105 -30
129 -84 10 -25 25 -46 32 -49 30 -10 37 5 37 84 0 68 -2 79 -17 80 -10 0 -27
2 -38 5 -120 25 -244 11 -309 -34 -101 -70 -113 -223 -23 -309 17 -18 66 -50
107 -74 92 -51 85 -45 67 -63 -11 -11 -16 -51 -22 -152 l-7 -136 -35 5 c-53 9
-84 34 -106 88 -18 42 -25 49 -49 49 l-29 0 3 -82 3 -83 78 -15 77 -15 0 -62
c0 -61 -1 -63 -25 -63 -27 0 -28 -5 -25 -88 2 -66 -8 -102 -31 -102 -11 0 -19
-7 -19 -17 0 -10 -1 -141 -2 -291 l-1 -274 -36 4 -36 3 2 -48 3 -48 -30 5
c-52 8 -47 49 -49 -470 l-1 -390 -32 0 c-26 1 -37 9 -59 41 -15 22 -25 43 -23
47 3 5 1 8 -5 8 -6 0 -13 11 -17 25 -3 14 -10 25 -15 25 -5 0 -8 3 -7 8 3 11
-13 52 -20 52 -4 0 -9 11 -10 25 -1 14 -8 35 -16 48 -8 12 -17 37 -21 55 -4
19 -11 30 -17 26 -6 -4 -8 -2 -5 3 10 16 -4 74 -16 66 -6 -3 -7 -1 -3 6 4 7 5
20 1 29 -4 9 -9 28 -11 42 -1 14 -6 36 -9 50 -4 14 -9 43 -11 65 -2 22 -6 52
-9 68 -3 15 -7 72 -9 126 -2 55 -7 104 -10 109 -3 6 -3 13 1 15 9 6 9 304 0
313 -3 4 -3 14 2 23 9 18 7 114 -3 129 -3 6 -3 13 2 16 9 6 8 143 -1 152 -3 4
-3 14 2 23 9 18 7 114 -3 129 -3 6 -3 13 2 16 7 4 9 192 2 221 -1 6 -1 12 0
15 7 16 3 410 -4 410 -5 0 -4 6 1 13 10 13 9 108 -1 125 -3 6 -3 13 1 15 7 4
9 355 3 382 -1 6 -1 12 0 15 7 16 4 250 -4 250 -5 0 -4 6 1 13 5 6 8 37 7 67
-1 30 2 60 6 65 5 6 62 10 139 9 87 -1 128 2 124 9 -4 6 -1 7 8 1 8 -5 222 -9
486 -9z m1994 -754 c58 -30 94 -72 121 -140 19 -48 22 -75 22 -186 0 -111 -3
-138 -23 -188 -22 -57 -64 -117 -82 -117 -5 0 -9 43 -9 95 0 57 -4 95 -10 95
-5 0 -11 12 -11 28 -2 23 -2 24 -6 5 -2 -13 -11 -23 -19 -23 -11 0 -14 -22
-14 -119 0 -138 6 -131 -115 -131 l-70 0 -1 356 -1 356 87 -4 c65 -3 97 -10
131 -27z m-2046 -417 c58 -38 84 -141 53 -208 -12 -28 -56 -61 -66 -51 -13 12
-28 275 -17 275 3 0 17 -7 30 -16z m286 -839 c70 -27 185 -79 197 -90 2 -1 -9
-43 -23 -91 -14 -49 -32 -116 -40 -149 -37 -152 -35 -147 -69 -140 -17 4 -55
13 -83 21 -46 13 -53 18 -53 39 0 22 -4 25 -40 25 l-40 0 0 216 0 216 33 -7
c17 -4 71 -22 118 -40z m1609 -4 c0 -14 -8 -21 -27 -23 l-27 -3 0 -168 c1
-162 0 -169 -20 -177 -21 -8 -21 -9 -21 -479 l1 -471 -41 0 -42 0 -18 78 c-15
68 -17 136 -19 549 l-1 471 -21 -4 c-19 -4 -21 1 -20 41 1 52 10 61 151 152
87 57 105 63 105 34z m-1181 -335 l1 -114 -25 -4 c-14 -3 -32 0 -40 6 -14 10
-14 17 -1 61 8 28 21 76 30 108 9 31 21 57 25 57 5 0 10 -51 10 -114z m434 8
c54 -13 67 -19 67 -35 0 -10 -6 -19 -14 -19 -8 0 -33 -9 -57 -20 -63 -28 -75
-26 -93 20 -24 59 -22 84 7 76 12 -3 52 -13 90 -22z m93 -126 c4 -18 9 -36 10
-40 1 -5 2 -9 4 -10 1 -2 3 -10 5 -18 1 -8 15 -62 30 -120 16 -58 28 -112 28
-120 0 -8 3 -19 7 -25 4 -5 13 -34 21 -62 7 -29 16 -53 21 -53 4 0 5 -6 2 -14
-3 -8 0 -25 7 -38 8 -15 13 -81 14 -198 l1 -176 -47 0 -48 1 -1 45 c-2 103 -8
166 -15 184 -5 12 -3 21 6 27 8 5 9 9 3 9 -6 0 -11 12 -12 28 -2 43 -10 117
-12 117 -2 0 -10 60 -13 108 -1 15 -6 27 -11 27 -4 0 -6 7 -3 15 4 8 2 17 -4
21 -5 3 -7 14 -4 25 4 11 2 19 -5 19 -6 0 -10 6 -7 13 2 6 -3 21 -12 31 -13
16 -13 18 -1 11 9 -5 8 0 -4 13 -11 12 -16 22 -12 22 4 0 1 7 -6 15 -29 32
-39 45 -33 45 3 0 -4 9 -15 20 -11 11 -20 26 -20 34 0 8 -6 16 -12 19 -17 6
-12 9 47 34 71 30 82 29 91 -9z m-879 -81 c1 -2 -2 -19 -8 -38 -11 -38 -18
-63 -25 -96 -2 -12 -8 -33 -13 -45 -5 -13 -9 -27 -10 -33 -5 -36 -23 -86 -29
-80 -4 4 -7 74 -8 157 l-1 150 45 -6 c25 -3 47 -7 49 -9z m200 -227 c-1 -12
-5 -16 -10 -11 -5 5 -6 14 -3 20 11 16 15 13 13 -9z m-40 -195 c-1 -40 -19
-67 -31 -46 -7 11 15 91 25 91 4 0 7 -20 6 -45z m-40 -235 c-1 -71 -3 -130 -6
-131 -74 -11 -78 -5 -52 92 13 46 27 103 33 127 5 23 13 42 17 42 5 0 8 -58 8
-130z"/>
<path d="M2434 4055 c-12 -18 -16 -51 -17 -128 0 -57 3 -108 7 -115 7 -12 74
-10 96 3 9 6 11 4 5 -4 -5 -9 0 -12 16 -9 23 3 24 5 25 108 0 141 -14 170 -87
170 -19 0 -34 -8 -45 -25z"/>
<path d="M2381 3744 c-35 -12 -75 -33 -89 -45 -41 -36 -73 -69 -67 -69 3 0 -4
-9 -16 -21 -11 -11 -18 -27 -15 -35 3 -8 2 -13 -3 -10 -21 13 -42 -144 -28
-204 13 -51 20 -70 30 -70 6 0 7 -3 4 -6 -9 -9 29 -62 72 -102 43 -41 115 -76
136 -68 9 3 13 2 10 -4 -4 -6 6 -10 22 -11 15 0 43 -2 60 -4 18 -2 35 0 38 5
3 4 15 6 27 2 16 -4 19 -2 13 8 -5 8 -4 11 3 6 15 -9 63 4 56 15 -3 5 4 9 16
9 33 0 105 75 139 144 29 59 48 160 32 171 -5 2 -6 16 -3 30 10 57 -115 240
-150 219 -6 -4 -8 -3 -5 3 6 10 -47 40 -56 32 -2 -2 -11 2 -20 9 -28 23 -137
22 -206 -4z m193 -152 c88 -49 121 -146 81 -237 -10 -22 -17 -44 -16 -48 1 -5
-2 -6 -7 -3 -5 3 -20 -6 -35 -20 -14 -13 -36 -24 -47 -24 -12 0 -19 -3 -16 -8
4 -7 -59 -5 -101 4 -33 7 -92 62 -108 102 -19 43 -19 103 -1 145 15 36 79 97
102 97 8 0 13 3 10 8 -9 14 107 1 138 -16z"/>
<path d="M2439 3480 c-22 -22 -28 -36 -25 -56 5 -27 35 -68 44 -59 3 3 11 0
18 -6 23 -19 63 -1 81 36 21 45 5 89 -39 104 -43 15 -46 15 -79 -19z"/>
</g>
</svg>
